# xmcd
#
# Track frame offsets:
#  150
#  11396
#  24635
#  39972
#  57164
#  72899
#  85165
#  106035
#  118089
#  136939
#  148271
#  162249
#  170993
#  183064
#  201280
#  214263
#  230470
#  241608
#  253908
#  265103
#
# Disc length: 3707 seconds
#
# Revision: 0
# Processed by: cddbd v1.5.1PL2 Copyright (c) Steve Scherf et al.
# Submitted via: Collectorz.com_Music_Collector 6.11
#
DISCID=140e7914
DTITLE=Various Artist - Classic Songs - Country Style [CD3)
DYEAR=2004
DGENRE=Country
TTITLE0=Eddy Arnold (1918-    ) - What A Wonderful World
TTITLE1=Conway Twitty - Danny Boy
TTITLE2=Charlie Rich - Down By The Riverside
TTITLE3=Skeeter Davis - Oh, Happy Day
TTITLE4=Glen Campbell (1936-    ) - He Ain't Heavy, He's My Brother
TTITLE5=Crystal Gayle X - Lean On Me
TTITLE6=Willie Nelson (1933-    ) - Bridge Over Troubled Water
TTITLE7=Charlie Rich - Swing Low, Sweet Chariot
TTITLE8=Slim Whitman - Home On The Range
TTITLE9=Loretta Lynn - He's Got The Whole World In His Hands
TTITLE10=Slim Whitman - You Are My Sunshine
TTITLE11=Marty Robbins (1925-1982) - Beautiful Dreamer
TTITLE12=Slim Whitman - Top Of The World
TTITLE13=T Graham Brown - The Old Rugged Cross
TTITLE14=Billie Jo Spears (1937-    ) - What The World Needs Now Is Love
TTITLE15=Kenny Rogers (1938-    ) - Green, Green Grass Of Home
TTITLE16=Johnny Cash (1932-2003) - If I Had A Hammer
TTITLE17=Brenda Lee - Softly, As I Leave You
TTITLE18=Johnny Cash (1932-2003) - Amazing Grace
TTITLE19=Glen Campbell (1936-    ) - You'll Never Walk Alone
EXTD=
EXTT0=
EXTT1=
EXTT2=
EXTT3=
EXTT4=
EXTT5=
EXTT6=
EXTT7=
EXTT8=
EXTT9=
EXTT10=
EXTT11=
EXTT12=
EXTT13=
EXTT14=
EXTT15=
EXTT16=
EXTT17=
EXTT18=
EXTT19=
PLAYORDER=
